<svg width="200" height="200" viewBox="0 0 200 200" fill="none" xmlns="http://www.w3.org/2000/svg">
<path d="M118.583 100.033C118.583 104.974 116.621 109.712 113.129 113.206C109.636 116.7 104.899 118.664 99.9583 118.667C95.0165 118.667 90.277 116.704 86.7826 113.209C83.2881 109.715 81.325 104.975 81.325 100.033C81.325 95.0929 83.287 90.3547 86.7796 86.8605C90.2723 83.3663 95.0096 81.4022 99.95 81.4C104.892 81.4 109.631 83.3631 113.126 86.8576C116.62 90.352 118.583 95.0915 118.583 100.033V100.033ZM140.65 10.95C129.433 10.95 114.758 18.95 99.9167 32.8C85.0833 19.025 70.4 11.1167 59.1917 11.1167C55.775 11.1167 52.6667 11.8917 49.975 13.4333C38.5167 20.0417 35.95 40.6333 41.8667 66.475C16.5 74.3083 0 86.8333 0 100.033C0 113.283 16.5833 125.842 42.025 133.617C36.1583 159.558 38.775 180.183 50.2583 186.783C52.925 188.342 56.0083 189.075 59.4417 189.075C70.65 189.075 85.3333 181.075 100.175 167.208C115.008 180.992 129.692 188.9 140.9 188.9C144.317 188.9 147.425 188.15 150.117 186.608C161.567 180.008 164.142 159.417 158.225 133.567C183.5 125.8 200 113.25 200 100.033C200 86.7833 183.417 74.225 157.975 66.4333C163.842 40.5167 161.225 19.875 149.742 13.2667C147.092 11.7333 144.008 10.9583 140.642 10.95H140.65ZM140.608 20.0333V20.0833C142.483 20.0833 143.992 20.45 145.258 21.1417C150.808 24.325 153.217 36.4333 151.342 52.0083C150.892 55.8417 150.158 59.8833 149.258 64.0083C141.258 62.0417 132.542 60.5333 123.367 59.5583C117.867 52.0167 112.158 45.1667 106.408 39.1667C119.675 26.8333 132.133 20.0667 140.617 20.0417L140.608 20.0333ZM59.1917 20.2C67.625 20.2 80.1417 26.9333 93.4417 39.2C87.725 45.2 82.025 52.0083 76.6083 59.55C67.3833 60.525 58.6583 62.0333 50.6667 64.0333C49.7333 59.95 49.0417 56 48.55 52.2C46.6333 36.6333 49 24.5333 54.5 21.3083C56.0833 20.5583 57.8333 20.25 59.1917 20.2083V20.2ZM99.875 45.6167C103.667 49.5167 107.458 53.8833 111.208 58.65C107.542 58.4833 103.792 58.3667 100 58.3667C96.1667 58.3667 92.375 58.45 88.6667 58.65C92.3333 53.8833 96.125 49.5167 99.875 45.6083V45.6167ZM100 67.5C106.167 67.5 112.308 67.7833 118.35 68.275C121.733 73.125 125.033 78.3 128.208 83.775C131.308 89.1083 134.125 94.525 136.692 99.9917C134.125 105.45 131.308 110.908 128.25 116.242C125.083 121.742 121.808 126.975 118.417 131.825C112.35 132.35 106.2 132.642 100 132.642C93.8333 132.642 87.6917 132.35 81.65 131.867C78.2667 127.017 74.9667 121.833 71.7917 116.367C68.6917 111.033 65.875 105.617 63.3083 100.15C65.8333 94.675 68.6917 89.2083 71.75 83.8667C74.9167 78.3667 78.1917 73.15 81.5833 68.3C87.65 67.7667 93.8 67.4833 100 67.4833V67.5ZM69.7083 69.6167C67.7083 72.7583 65.7083 75.975 63.8417 79.2833C61.9667 82.5333 60.2167 85.8 58.55 89.0667C56.3417 83.6 54.4667 78.15 52.9167 72.8417C58.25 71.5917 63.875 70.4833 69.7083 69.625V69.6167ZM130.208 69.6167C136 70.475 141.583 71.5333 146.925 72.8417C145.425 78.1083 143.55 83.525 141.425 88.95C139.758 85.7 138.008 82.425 136.092 79.1667C134.217 75.9 132.217 72.7167 130.217 69.6167H130.208ZM155.733 75.2417C159.767 76.4917 163.6 77.8833 167.192 79.3917C181.625 85.5583 190.958 93.625 190.958 100.025C190.917 106.425 181.583 114.525 167.15 120.65C163.65 122.15 159.817 123.5 155.858 124.758C153.525 116.775 150.475 108.458 146.692 99.925C150.442 91.45 153.442 83.175 155.733 75.225V75.2417ZM44.1083 75.275C46.425 83.275 49.4833 91.5833 53.275 100.108C49.525 108.583 46.5083 116.858 44.225 124.808C40.1917 123.558 36.3583 122.158 32.8083 120.642C18.375 114.5 9.04167 106.425 9.04167 100.025C9.04167 93.625 18.375 85.5083 32.8083 79.3917C36.3083 77.8917 40.1417 76.5417 44.1083 75.275V75.275ZM141.425 110.942C143.633 116.417 145.508 121.875 147.058 127.175C141.725 128.483 136.092 129.592 130.258 130.425C132.258 127.3 134.258 124.075 136.133 120.775C138.008 117.525 139.758 114.208 141.433 110.942H141.425ZM58.55 111.108C60.2167 114.375 61.9667 117.633 63.8833 120.9C65.8 124.15 67.7583 127.333 69.7583 130.425C63.9667 129.575 58.3833 128.508 53.0417 127.208C54.5417 121.958 56.425 116.525 58.5417 111.1L58.55 111.108ZM149.333 136C150.267 140.108 151 144.067 151.45 147.858C153.367 163.425 151 175.525 145.5 178.758C144.275 179.508 142.683 179.825 140.808 179.825C132.375 179.825 119.858 173.1 106.558 160.825C112.275 154.825 117.975 148.025 123.392 140.492C132.617 139.508 141.342 137.992 149.333 135.992V136ZM50.75 136.083C58.75 138.033 67.4667 139.542 76.6417 140.517C82.1417 148.058 87.85 154.908 93.6 160.9C80.3083 173.258 67.8333 180.025 59.35 180.025C57.5167 179.983 55.9667 179.608 54.7417 178.925C49.1917 175.758 46.7833 163.642 48.6583 148.067C49.1083 144.233 49.8417 140.2 50.7417 136.083H50.75ZM88.75 141.417C92.4167 141.583 96.1667 141.7 99.9583 141.7C103.792 141.7 107.583 141.617 111.292 141.417C107.625 146.183 103.833 150.542 100.083 154.458C96.2917 150.542 92.5 146.183 88.75 141.417Z" fill="#0057FF"/>
</svg>
